PathFileType	4	(X/Y/Z)	CPRIT_Patient3_R_KneeIso_Processed.TRC
DataRate	CameraRate	NumFrames	NumMarkers	Units	OrigDataRate	OrigDataStartFrame	OrigNumFrames
150.195058517555	150.195058517555	5	39	m	150.195058517555	290	       771
Frame#	Time	R.Heel			R.Midfoot.Superior			R.Midfoot.Lateral			R.Toe			L.Heel			L.Midfoot.Superior			L.Midfoot.Lateral			L.Toe			R.Shank.Superior			R.Shank.Inferior			R.Shank.Lateral			R.Shank.Posterior			L.Shank.Superior			L.Shank.Inferior			L.Shank.Posterior			L.Shank.Lateral			R.Patella			L.Patella			R.Thigh.Superior			R.Thigh.Lateral			R.Thigh.Inferior			L.Thigh.Superior			L.Thigh.Inferior			L.Thigh.Lateral			L.ASIS			R.ASIS			Sacral			R.Shoulder			L.Shoulder			C7			J.Notch			Sternum			Thoracic			L.Elbow			L.Wrist			R.Elbow			R.Wrist			R.PSIS			L.PSIS			
		X1	Y1	Z1	X2	Y2	Z2	X3	Y3	Z3	X4	Y4	Z4	X5	Y5	Z5	X6	Y6	Z6	X7	Y7	Z7	X8	Y8	Z8	X9	Y9	Z9	X10	Y10	Z10	X11	Y11	Z11	X12	Y12	Z12	X13	Y13	Z13	X14	Y14	Z14	X15	Y15	Z15	X16	Y16	Z16	X17	Y17	Z17	X18	Y18	Z18	X19	Y19	Z19	X20	Y20	Z20	X21	Y21	Z21	X22	Y22	Z22	X23	Y23	Z23	X24	Y24	Z24	X25	Y25	Z25	X26	Y26	Z26	X27	Y27	Z27	X28	Y28	Z28	X29	Y29	Z29	X30	Y30	Z30	X31	Y31	Z31	X32	Y32	Z32	X33	Y33	Z33	X34	Y34	Z34	X35	Y35	Z35	X36	Y36	Z36	X37	Y37	Z37	X38	Y38	Z38	X39	Y39	Z39	

290	1.924164502165	0.640636449512	0.168232195606	0.055976876656	0.812510785633	0.153910725592	0.096389325156	0.698953988393	0.132872825633	0.123232690172	0.901954784892	0.070695617949	0.123259720193	0.653578420197	0.042545798655	-0.090762440987	0.817902253701	0.095965128352	-0.136756771744	0.721083346119	0.032707813594	-0.161272978987	0.932194199158	0.056902890356	-0.163489796194	0.900107068506	0.400738838071	0.097233764367	0.833691711861	0.298171706032	0.095783423996	0.794804132866	0.381780858994	0.141338712497	0.770832073534	0.455213715725	0.071551156122	0.768646652971	0.364937340616	-0.160834407540	0.763199367068	0.237068855019	-0.143936831621	0.631092708354	0.340006860164	-0.145879492706	0.698654641765	0.276658505313	-0.198806172113	0.980241093982	0.514588966112	0.079680393791	0.794321394266	0.466453068740	-0.158231950214	0.866798639794	0.831558447323	0.086431555220	0.825928483906	0.737332604559	0.139302340588	0.938251698985	0.692642062147	0.061634116432	0.845277377776	0.775902083030	-0.179932328676	0.830711477327	0.611330396782	-0.166270665821	0.746289630246	0.704064809898	-0.233269019198	0.835186930133	0.936176569068	-0.171285548568	0.805671788771	0.956731160955	0.066848795563	0.632583573692	0.990369340906	-0.065169286806	0.754886430887	1.451292191439	0.081177239533	0.770536227107	1.462912982124	-0.231847842679	0.705155801556	1.479375637759	-0.077385107353	0.823234051943	1.375338970104	-0.074299846715	0.873682896615	1.195519480411	-0.073847090584	0.619745487327	1.323513632039	-0.084564987305	0.751845404067	1.184486738157	-0.412611306887	0.902805326668	0.987184043555	-0.450828278722	0.668500435518	1.180652503453	0.256828474121	0.736334571849	0.981761161091	0.383888682292	0.631699730585	0.992039272847	-0.027650271306	0.636383866273	0.990057133782	-0.102907953442	
291	1.930822510823	0.644743687305	0.164215689769	0.056774224870	0.816865979697	0.152307677844	0.096841039213	0.703667125700	0.129711811093	0.123903562117	0.907537714153	0.070379981731	0.123634786974	0.653579790449	0.042553784398	-0.090772400375	0.817929382396	0.095986131428	-0.136725186174	0.721082812394	0.032706716852	-0.161273607508	0.932193714574	0.056904646687	-0.163489177127	0.901082655804	0.400300921314	0.097350808236	0.836070853036	0.296863430621	0.096110634040	0.796176480074	0.379981725241	0.141720754346	0.771117536722	0.453144628544	0.071964228785	0.768605306168	0.364916472727	-0.160811992687	0.763193916827	0.237069011839	-0.143936728768	0.631062227018	0.339991474137	-0.145921573554	0.698644902382	0.276647061292	-0.198830127251	0.979788142020	0.514693568782	0.079594870775	0.794280878108	0.466450072932	-0.158236280649	0.866596824569	0.831511741704	0.086546104154	0.825533890436	0.737233132662	0.139310732741	0.937785833774	0.692395838634	0.061631652336	0.845247307544	0.775886310183	-0.179903524172	0.830672229830	0.611314221128	-0.166249574877	0.746293207960	0.704056271818	-0.233292951544	0.835163406055	0.936156853588	-0.171275440384	0.805521027985	0.956734583214	0.066851317540	0.632508397116	0.990386666899	-0.065269042167	0.754817697506	1.451273876489	0.081139769832	0.770555892668	1.462912261299	-0.231873749309	0.705129879891	1.479377412277	-0.077450006773	0.823197544597	1.375332566142	-0.074326866580	0.873622265310	1.195487660247	-0.073848532545	0.619723829920	1.323522658901	-0.084653433238	0.751868078396	1.184503800055	-0.412671530335	0.902815554715	0.987182412855	-0.450840390406	0.668462880151	1.180626794754	0.256792930944	0.736329737124	0.981761062281	0.383883344649	0.631605647191	0.992063867242	-0.027750761284	0.636327910475	0.990075473891	-0.103005656245	
292	1.937480519481	0.648914708642	0.160245016736	0.057583032731	0.821258060976	0.150757709195	0.097278935560	0.708441542690	0.126603810854	0.124574072318	0.913140397830	0.070130372490	0.123972748311	0.653581800671	0.042561538580	-0.090782345733	0.817956953116	0.096007979644	-0.136693040296	0.721082349799	0.032705654453	-0.161274193144	0.932193147222	0.056906052934	-0.163488705953	0.902063247126	0.399879237891	0.097459566450	0.838473025465	0.295589481580	0.096431291519	0.797580583125	0.378197848733	0.142109120591	0.771423500469	0.451080410058	0.072397788584	0.768566377952	0.364897055518	-0.160790776634	0.763188766506	0.237069336380	-0.143936187549	0.631031317444	0.339975887944	-0.145962828615	0.698634769262	0.276635526440	-0.198853554532	0.979325988692	0.514802367804	0.079501734742	0.794239693113	0.466447378266	-0.158240710162	0.866394822376	0.831470288266	0.086672614869	0.825135695443	0.737131803750	0.139319583756	0.937315129819	0.692144868879	0.061627397114	0.845216229794	0.775870692488	-0.179874942898	0.830632172368	0.611298191701	-0.166228791432	0.746295233482	0.704048003303	-0.233315961927	0.835138182182	0.936137634725	-0.171265175137	0.805370889031	0.956737965215	0.066854330435	0.632432586031	0.990403200522	-0.065367433229	0.754747893070	1.451255985517	0.081104897333	0.770578729694	1.462911533252	-0.231895254825	0.705106084539	1.479379537449	-0.077513103924	0.823162804543	1.375325860887	-0.074349753857	0.873562092194	1.195455726021	-0.073846146128	0.619702724570	1.323532183477	-0.084740039615	0.751892616496	1.184522130850	-0.412728692424	0.902825846222	0.987180950948	-0.450851682156	0.668422858934	1.180601528387	0.256759683874	0.736324522104	0.981760893088	0.383878407050	0.631511055643	0.992087700798	-0.027850026727	0.636270994280	0.990093019215	-0.103101919639	
293	1.944138528139	0.653144983840	0.156326499051	0.058400580190	0.825682436256	0.149263741071	0.097701340993	0.713271828288	0.123554204617	0.125242051057	0.918755562745	0.069947312240	0.124271370566	0.653584386873	0.042568996231	-0.090792174381	0.817984633059	0.096030452720	-0.136660622587	0.721081963570	0.032704626882	-0.161274732841	0.932192486693	0.056907112014	-0.163488443316	0.903048287814	0.399474729546	0.097559374741	0.840895721853	0.294352101811	0.096744444338	0.799015096004	0.376432344134	0.142502704104	0.771750686833	0.449023815940	0.072850572878	0.768529483382	0.364879391856	-0.160771100696	0.763183523074	0.237069878016	-0.143935521581	0.630999852953	0.339960117770	-0.146003036375	0.698624038622	0.276623918996	-0.198876386259	0.978855696698	0.514915844468	0.079401179162	0.794197722208	0.466445006089	-0.158245349666	0.866193424950	0.831433270697	0.086809274521	0.824735246160	0.737029083417	0.139329170676	0.936840507108	0.691889652809	0.061621865708	0.845183949544	0.775855237580	-0.179846910625	0.830591056194	0.611282325875	-0.166208590892	0.746295616923	0.704040121532	-0.233338291230	0.835111038398	0.936118952839	-0.171255232970	0.805222125763	0.956741263672	0.066857477016	0.632356308154	0.990418808205	-0.065464164599	0.754677253172	1.451238546667	0.081072736151	0.770604365546	1.462910820515	-0.231912468163	0.705084231667	1.479381950977	-0.077573927922	0.823129722185	1.375318803109	-0.074368418536	0.873502266882	1.195423655855	-0.073840265208	0.619682036600	1.323542148263	-0.084824292202	0.751918772919	1.184541530717	-0.412782444166	0.902836140101	0.987179665495	-0.450862074604	0.668380507479	1.180576810471	0.256728972765	0.736318947073	0.981760639575	0.383873901189	0.631416207475	0.992110546197	-0.027947774326	0.636213111342	0.990109601656	-0.103196443698	
294	1.950796536797	0.657429590603	0.152466316407	0.059224009276	0.830134271559	0.147828497037	0.098106657196	0.718152167290	0.120568150207	0.125905293975	0.924375915794	0.069831131905	0.124528735951	0.653587467360	0.042576107595	-0.090801791441	0.818012035976	0.096053302881	-0.136628285362	0.721081657008	0.032703634868	-0.161275225560	0.932191729121	0.056907823844	-0.163488442212	0.904037177070	0.399088210912	0.097649621203	0.843336275049	0.293153289621	0.097049197882	0.800478428855	0.374688202161	0.142900315747	0.772099714896	0.446977511517	0.073321054928	0.768494227633	0.364863698740	-0.160753280278	0.763177785655	0.237070678227	-0.143935058227	0.630967738115	0.339944188210	-0.146041992018	0.698612536538	0.276612260758	-0.198898559826	0.978378339265	0.515034459103	0.079293436878	0.794154890693	0.466442972455	-0.158250289653	0.865993440908	0.831399736382	0.086954068723	0.824333958275	0.736925480711	0.139339788682	0.936362843941	0.691630705313	0.061615420303	0.845150309985	0.775839967688	-0.179819733880	0.830548687899	0.611266654301	-0.166189220315	0.746294303251	0.704032736797	-0.233360164217	0.835081792455	0.936100846763	-0.171246059515	0.805075473184	0.956744441424	0.066860428580	0.632279737166	0.990433363116	-0.065558934088	0.754606048436	1.451221580555	0.081043361416	0.770632426959	1.462910142079	-0.231925592109	0.705064132547	1.479384582926	-0.077632041689	0.823098177526	1.375311325881	-0.074382836182	0.873442672722	1.195391407504	-0.073831271536	0.619661630699	1.323552494541	-0.084905698331	0.751946277879	1.184561785106	-0.412832515048	0.902846376080	0.987178559580	-0.450871503822	0.668336011899	1.180552741917	0.256700995124	0.736313042002	0.981760288427	0.383869851835	0.631321354613	0.992132180259	-0.028043706412	0.636154271778	0.990125060194	-0.103288922155	
